<?xml version="1.0" standalone="no"?>
<!DOCTYPE svg PUBLIC "-//W3C//DTD SVG 20010904//EN"
 "http://www.w3.org/TR/2001/REC-SVG-20010904/DTD/svg10.dtd">
<svg version="1.0" xmlns="http://www.w3.org/2000/svg"
 width="504.000000pt" height="504.000000pt" viewBox="0 0 504.000000 504.000000"
 preserveAspectRatio="xMidYMid meet">
<metadata>
Created by potrace 1.14, written by Peter Selinger 2001-2017
</metadata>
<g transform="translate(0.000000,504.000000) scale(0.100000,-0.100000)"
fill="#000000" stroke="none">
<path d="M0 4776 c0 -146 4 -267 9 -270 10 -6 863 -24 1401 -30 354 -3 782
-13 945 -21 44 -2 178 -4 298 -4 157 -1 217 -4 217 -13 0 -6 -14 -56 -31 -110
l-31 -98 -67 6 c-36 3 -110 10 -165 15 -106 10 -202 12 -194 4 6 -6 119 -20
286 -35 72 -7 132 -13 132 -14 0 -16 -75 -207 -99 -253 l-33 -63 -52 0 c-62 0
-71 6 -90 51 -16 39 -83 105 -122 119 -39 15 -122 12 -159 -6 -19 -9 -63 -47
-99 -85 l-65 -69 -113 5 c-390 19 -870 35 -1051 35 -120 0 -268 7 -342 15 -75
8 -224 15 -352 15 l-223 0 0 -1082 0 -1083 132 0 133 0 3 -38 c3 -38 3 -38
-30 -33 -18 3 -65 8 -105 11 -40 3 -86 10 -103 15 -25 7 -30 6 -30 -9 0 -15
15 -20 86 -31 47 -7 103 -12 124 -12 30 1 42 -5 54 -23 21 -32 20 -55 -2 -55
-10 0 -23 -5 -30 -12 -12 -12 -129 -13 -198 -2 -26 4 -34 2 -34 -10 0 -12 10
-16 36 -16 23 0 33 -4 28 -11 -3 -6 -19 -9 -35 -5 l-29 6 0 -66 0 -66 33 6
c43 9 217 36 233 36 7 0 19 6 26 12 8 8 45 14 96 15 77 1 119 14 107 33 -3 4
1 10 9 13 7 3 21 38 31 79 10 40 19 75 21 77 2 2 10 -2 19 -9 8 -7 15 -9 15
-4 0 5 4 3 9 -5 6 -10 11 -5 16 20 4 19 14 43 22 55 7 12 11 29 7 38 -3 9 -2
16 3 16 5 0 10 11 11 25 1 14 -3 25 -8 25 -6 0 -18 16 -27 35 -13 27 -14 38
-5 47 9 9 12 7 12 -9 0 -34 38 -71 106 -104 71 -33 96 -33 87 1 -4 13 0 26 8
31 19 11 16 138 -5 239 -20 92 -20 120 -3 120 8 0 55 -25 106 -56 51 -30 120
-67 154 -81 55 -23 148 -84 185 -120 17 -16 99 -73 106 -73 3 0 8 17 11 38 11
63 16 72 37 72 18 0 19 -5 16 -60 -3 -57 -2 -60 23 -69 15 -5 91 -7 170 -5
124 3 150 7 187 26 59 30 104 83 151 176 42 84 116 174 163 198 27 14 32 14
48 -1 10 -9 21 -31 24 -50 4 -18 18 -49 31 -69 14 -20 25 -40 25 -45 0 -4 9
-16 20 -26 14 -13 20 -31 20 -61 0 -38 -7 -51 -66 -120 -36 -43 -71 -88 -77
-101 -11 -26 -54 -53 -82 -53 -20 0 3 35 83 124 30 34 63 75 73 91 23 36 25
88 4 105 -28 23 -62 2 -121 -77 -110 -147 -158 -185 -259 -207 l-30 -6 30 16
c39 22 135 97 155 121 59 70 160 207 161 216 5 46 -8 94 -27 101 -25 10 -50
-18 -95 -107 -23 -44 -51 -97 -64 -117 -29 -45 -104 -112 -151 -135 -50 -23
-220 -37 -315 -25 -126 15 -190 42 -314 130 -38 28 -86 62 -106 76 -20 13 -54
28 -75 31 -21 3 -58 17 -81 30 -40 23 -43 23 -50 7 -4 -10 2 -32 13 -53 16
-29 41 -47 149 -103 72 -37 133 -67 136 -67 4 -1 9 8 12 19 10 40 34 18 28
-27 -2 -15 104 -64 213 -99 95 -30 267 -43 330 -26 22 7 41 10 43 8 2 -1 -20
-15 -47 -30 -43 -23 -60 -27 -108 -24 -48 4 -233 50 -294 73 -14 5 -18 2 -18
-13 0 -21 -17 -39 -27 -28 -3 3 -5 17 -5 31 0 20 -8 29 -35 40 -20 8 -40 15
-45 15 -15 0 -5 -92 12 -101 8 -4 89 -13 180 -19 130 -9 171 -16 195 -31 30
-19 28 -27 -3 -10 -17 9 -241 32 -359 36 l-62 3 -6 -39 c-13 -75 -47 -58 -43
21 2 25 6 48 11 51 6 5 -229 129 -245 129 -3 0 -4 -33 -3 -73 1 -39 0 -78 -3
-84 -6 -18 -31 -16 -38 2 -9 21 -20 10 -27 -25 -4 -17 -13 -30 -21 -30 -19 0
-31 72 -16 100 6 12 10 23 8 24 -12 9 -113 46 -125 46 -10 0 -14 -9 -13 -27 1
-16 2 -70 1 -122 l-1 -93 -25 4 c-14 3 -25 1 -25 -3 0 -5 -7 -9 -15 -9 -8 0
-15 5 -15 12 0 9 -3 9 -11 1 -9 -9 -8 -18 5 -38 14 -22 24 -26 54 -23 20 2 40
7 44 13 4 6 13 2 22 -10 15 -20 15 -20 21 0 4 11 11 27 16 35 5 8 14 26 20 40
10 24 11 24 25 6 8 -11 14 -39 14 -63 0 -36 3 -43 20 -43 20 0 24 -8 21 -46
-2 -16 9 -23 52 -37 68 -22 77 -21 77 2 0 11 4 22 9 25 4 3 11 23 15 44 7 46
32 74 42 48 3 -9 4 -48 2 -86 -3 -52 0 -71 10 -75 19 -7 32 3 26 19 -9 24 16
95 36 106 16 9 22 7 26 -5 3 -8 3 -22 0 -31 -7 -19 13 -96 29 -106 5 -4 22 -8
36 -8 22 0 27 6 38 51 8 31 20 53 30 56 9 2 34 26 56 53 22 27 46 49 53 50 16
0 15 -30 -2 -71 -8 -19 -16 -61 -17 -94 l-3 -60 40 -7 c65 -12 444 -11 519 1
156 26 254 73 293 142 23 39 32 36 32 -11 0 -26 -6 -42 -17 -50 -17 -10 -16
-10 2 -8 16 3 20 -5 27 -47 4 -27 5 -51 4 -53 -7 -6 -790 -2 -839 4 -43 6 -49
5 -54 -15 -7 -27 -14 -26 -37 1 l-19 22 -18 -23 c-20 -24 -26 -76 -10 -85 5
-3 21 4 36 15 36 29 45 15 34 -50 -14 -89 -92 -185 -157 -194 -60 -8 -451 1
-520 12 -41 6 -69 16 -77 27 -11 16 -17 16 -39 6 -34 -15 -61 -15 -126 0 -44
10 -56 18 -77 51 -13 21 -33 77 -44 125 -10 48 -21 94 -23 102 -4 17 -64 19
-209 6 l-87 -8 0 -664 0 -664 2380 0 2380 0 0 273 0 273 60 78 c33 43 75 96
92 118 76 92 132 168 124 168 -3 0 -33 -37 -67 -83 -35 -45 -71 -91 -80 -102
-23 -26 -78 -96 -104 -132 l-20 -28 -6 60 c-4 47 -2 65 12 85 54 80 73 230 49
401 -11 85 -11 92 8 112 10 12 22 29 26 37 4 8 -3 3 -16 -13 -25 -29 -48 -36
-48 -14 0 19 -40 53 -72 61 -29 6 -28 -1 -9 141 l6 50 165 5 165 5 -162 9
-163 8 6 42 c3 22 23 118 45 211 50 220 94 450 115 600 19 143 14 460 -10 590
-9 44 -16 83 -16 88 0 4 41 7 90 7 59 0 90 4 90 11 0 7 -31 10 -97 7 l-97 -3
-17 45 -17 45 117 5 116 6 -121 2 -120 2 -17 35 -17 35 130 0 c75 0 131 4 135
10 4 6 -45 10 -139 10 -80 0 -146 3 -146 8 0 4 -20 38 -45 76 -48 73 -48 96 1
96 13 0 27 6 31 13 18 29 125 63 226 72 l77 7 0 754 0 754 -45 0 c-44 0 -45
-1 -45 -31 0 -20 -4 -28 -11 -23 -9 5 -10 -1 -5 -22 4 -16 13 -32 19 -36 8 -5
7 -8 -4 -8 -9 0 -21 10 -28 23 -11 20 -11 20 -6 -8 4 -20 3 -27 -4 -20 -11 11
-28 74 -17 63 10 -9 46 28 46 47 0 18 -26 20 -33 3 -4 -10 -6 -10 -6 0 -1 6
-8 12 -17 12 -13 0 -15 -11 -12 -67 l3 -68 -65 -3 c-36 -1 -180 1 -320 5
l-255 8 -3 63 c-4 79 -22 81 -22 2 0 -60 0 -60 -29 -60 -34 0 -41 14 -41 76
l0 44 -136 0 -135 0 7 -46 c5 -36 4 -45 -6 -39 -9 5 -10 2 -5 -15 5 -14 3 -20
-3 -16 -6 3 -12 0 -14 -6 -3 -7 -8 6 -12 30 -3 24 -2 50 4 60 7 13 9 9 5 -18
-4 -30 -3 -31 4 -10 21 60 22 60 -108 60 -145 0 -181 -6 -181 -31 0 -10 -4
-20 -9 -24 -6 -3 -8 8 -6 25 4 27 2 30 -25 30 -23 0 -30 -5 -30 -20 0 -11 -4
-20 -9 -20 -5 0 -7 10 -3 23 5 20 4 21 -11 8 -14 -11 -17 -11 -18 0 0 8 -4 5
-9 -6 -7 -17 -9 -17 -9 -2 -1 16 -90 17 -1716 17 l-1715 0 0 -264z m3490 179
c0 -5 -5 -3 -10 5 -5 8 -10 20 -10 25 0 6 5 3 10 -5 5 -8 10 -19 10 -25z m-21
-59 c1 -68 -5 -55 -12 24 -3 38 -1 57 3 45 5 -11 9 -42 9 -69z m101 68 c0 -8
-5 -12 -10 -9 -6 4 -8 11 -5 16 9 14 15 11 15 -7z m243 -14 c-4 -4 -35 -5 -68
-2 -58 6 -58 7 -20 12 48 6 100 0 88 -10z m-176 -55 c-4 -66 3 -80 33 -64 11
5 16 2 16 -9 0 -9 4 -28 8 -42 5 -19 5 -21 -3 -10 -15 21 -15 -4 0 -33 9 -16
9 -19 0 -11 -16 14 -33 77 -19 68 6 -4 8 -1 6 7 -3 8 -11 13 -18 11 -7 -1 -18
2 -24 8 -7 5 -16 7 -19 3 -4 -3 -7 4 -7 16 0 12 4 19 10 16 6 -3 10 -2 10 4 0
5 -4 13 -10 16 -5 3 -10 1 -10 -4 0 -19 -19 -12 -31 11 -10 18 -9 20 5 15 9
-4 16 -2 16 3 0 6 -6 10 -12 11 -10 0 -10 2 0 6 6 2 12 13 12 24 0 13 7 19 21
19 20 0 21 -4 16 -65z m-267 -2 c0 -12 5 -34 12 -48 9 -19 9 -28 0 -37 -7 -7
-12 -21 -13 -32 -1 -18 -2 -17 -9 4 l-8 25 -1 -27 c-1 -19 4 -28 15 -28 8 0
12 -5 9 -10 -4 -6 -11 -7 -17 -4 -6 4 -14 0 -19 -7 -6 -10 -9 -5 -9 16 0 17
-5 37 -10 45 -7 11 -10 2 -10 -32 0 -27 -5 -48 -10 -48 -6 0 -8 10 -6 23 32
161 30 155 37 117 l6 -35 3 35 2 35 9 -32 c5 -18 14 -33 19 -33 12 0 13 17 1
22 -4 2 -11 25 -13 52 -4 30 -2 43 3 35 5 -8 9 -24 9 -36z m368 40 c-16 -2
-40 -2 -55 0 -16 2 -3 4 27 4 30 0 43 -2 28 -4z m-38 -33 c-8 -5 -17 -7 -19
-4 -3 3 1 9 9 14 8 5 17 7 19 4 3 -3 -1 -9 -9 -14z m108 13 c-15 -2 -42 -2
-60 0 -18 2 -6 4 27 4 33 0 48 -2 33 -4z m-236 -92 c-3 -9 -1 -12 5 -8 7 5 9
-1 5 -15 -5 -19 -7 -20 -10 -5 -2 9 -7 17 -11 17 -4 0 -8 13 -8 30 0 25 2 27
13 13 6 -10 9 -24 6 -32z m-28 24 c3 -8 1 -15 -4 -15 -6 0 -10 7 -10 15 0 8 2
15 4 15 2 0 6 -7 10 -15z m15 -58 c0 -7 -4 -20 -8 -30 -5 -14 -9 -9 -17 22
-10 37 -10 39 8 30 10 -5 18 -15 17 -22z m-172 -19 c-3 -7 -5 -2 -5 12 0 14 2
19 5 13 2 -7 2 -19 0 -25z m263 -25 c-9 -15 -10 -14 -4 6 4 16 3 21 -5 17 -12
-8 -15 6 -4 18 13 13 24 -23 13 -41z m-123 -5 c-3 -7 -5 -2 -5 12 0 14 2 19 5
13 2 -7 2 -19 0 -25z m80 0 c-3 -8 -6 -5 -6 6 -1 11 2 17 5 13 3 -3 4 -12 1
-19z m134 -44 c11 -10 19 -12 19 -6 0 7 -4 12 -9 12 -5 0 -12 7 -15 16 -4 10
3 8 22 -8 18 -14 24 -24 16 -26 -7 -2 -16 -12 -19 -23 -4 -10 -10 -19 -14 -19
-14 0 -31 50 -30 88 2 28 3 31 6 11 2 -15 13 -35 24 -45z m-394 -46 c-2 -13
-4 -5 -4 17 -1 22 1 32 4 23 2 -10 2 -28 0 -40z m202 14 c0 -24 -1 -25 -9 -7
-12 28 -12 47 0 40 6 -3 10 -18 9 -33z m77 12 c-4 -9 -9 -15 -11 -12 -3 3 -3
13 1 22 4 9 9 15 11 12 3 -3 3 -13 -1 -22z m68 10 c3 -8 2 -12 -4 -9 -6 3 -10
10 -10 16 0 14 7 11 14 -7z m-27 -26 c-3 -8 -6 -5 -6 6 -1 11 2 17 5 13 3 -3
4 -12 1 -19z m-133 -46 c4 -26 3 -41 -3 -38 -5 4 -11 1 -13 -6 -3 -7 -7 -2
-10 10 -4 12 -2 22 3 22 5 0 9 14 9 32 0 41 6 33 14 -20z m296 38 c0 -5 -4
-10 -10 -10 -5 0 -10 5 -10 10 0 6 5 10 10 10 6 0 10 -4 10 -10z m38 -45 c-1
-19 -7 -35 -14 -35 -9 0 -10 8 -1 35 6 19 12 35 14 35 2 0 3 -16 1 -35z m-602
-27 c-9 -12 -17 -32 -17 -43 -1 -13 -3 -15 -6 -5 -5 20 28 100 34 83 3 -7 -3
-23 -11 -35z m384 -27 c0 -32 -6 -24 -14 19 -4 25 -3 31 4 20 5 -8 10 -26 10
-39z m-374 -31 c-4 -25 -2 -40 4 -40 17 0 11 -36 -9 -54 -12 -11 -16 -25 -13
-41 5 -30 -13 -34 -21 -4 -7 25 2 51 13 44 5 -3 8 7 8 22 -1 36 12 113 19 113
3 0 3 -18 -1 -40z m249 -9 c-7 -26 -17 -57 -23 -67 -10 -17 -11 -17 -12 7 0
15 -2 42 -5 60 -4 29 -3 30 4 9 l9 -25 1 25 c1 18 4 21 10 12 6 -10 10 -9 14
7 3 12 7 21 10 21 3 0 -1 -22 -8 -49z m168 37 c4 -10 8 -10 15 1 14 19 32 5
32 -25 0 -13 5 -24 10 -24 6 0 10 -4 10 -10 0 -25 -29 6 -32 33 -3 32 -3 32
-16 9 -8 -13 -14 -57 -14 -100 -1 -64 -3 -70 -9 -37 -4 22 -4 64 -2 93 4 35 2
52 -6 52 -6 0 -11 5 -11 10 0 14 17 12 23 -2z m157 -63 l-7 -50 -2 60 c0 34 3
55 8 50 4 -6 5 -32 1 -60z m-611 -28 c-6 -17 -13 -38 -15 -46 -3 -8 -7 -12
-10 -9 -7 8 19 97 27 92 4 -2 3 -19 -2 -37z m242 -40 c1 -26 -1 -50 -5 -55 -5
-4 -7 2 -5 13 2 11 0 33 -4 48 -4 15 -5 33 -1 38 10 16 14 6 15 -44z m-137
-13 c3 -8 2 -12 -4 -9 -6 3 -10 10 -10 16 0 14 7 11 14 -7z m403 -71 c-2 -16
-4 -3 -4 27 0 30 2 43 4 28 2 -16 2 -40 0 -55z m-419 28 c2 -19 -1 -44 -6 -55
-6 -12 -14 -30 -18 -41 -7 -19 -8 -19 -11 3 -3 12 3 29 11 38 17 17 22 69 6
59 -5 -3 -10 -15 -10 -25 0 -10 -4 -22 -10 -25 -6 -4 -10 12 -10 40 0 42 2 46
23 43 17 -2 23 -11 25 -37z m127 9 c-2 -17 1 -30 7 -30 7 0 7 -4 1 -12 -6 -7
-13 -26 -17 -42 -5 -22 -10 -26 -16 -16 -5 8 -2 23 8 38 12 19 13 25 3 32 -10
5 -10 9 -2 14 6 4 9 12 6 17 -4 5 -3 14 0 19 11 17 14 11 10 -20z m375 -4 c0
-7 -6 -19 -14 -25 -11 -9 -12 -6 -8 14 5 26 22 35 22 11z m-137 -44 c-3 -12
-9 -19 -14 -16 -5 3 -3 14 3 24 15 24 19 21 11 -8z m-501 -19 c-3 -16 -7 -22
-10 -15 -4 13 4 42 11 42 2 0 2 -12 -1 -27z m631 10 c-7 -3 -13 -12 -13 -21 0
-15 -2 -15 -10 -2 -12 19 -13 33 -1 25 5 -3 13 0 16 6 4 5 10 7 14 3 3 -4 0
-9 -6 -11z m-67 -50 c-11 -11 -17 4 -9 23 7 18 8 18 11 1 2 -10 1 -21 -2 -24z
m-57 -5 c-1 -31 -1 -31 -8 -8 -5 14 -6 28 -4 33 9 15 13 6 12 -25z m-282 -20
c-3 -8 -6 -5 -6 6 -1 11 2 17 5 13 3 -3 4 -12 1 -19z m220 -25 c-3 -10 -5 -4
-5 12 0 17 2 24 5 18 2 -7 2 -21 0 -30z m-353 -38 c5 -29 4 -36 -3 -25 -6 8
-11 27 -11 43 0 15 -4 27 -10 27 -5 0 -10 5 -10 12 0 28 28 -19 34 -57z m393
43 c-3 -8 -6 -5 -6 6 -1 11 2 17 5 13 3 -3 4 -12 1 -19z m73 8 c0 -23 -11 -46
-20 -41 -10 6 0 55 11 55 5 0 9 -6 9 -14z m-53 -38 c-3 -8 -6 -5 -6 6 -1 11 2
17 5 13 3 -3 4 -12 1 -19z m-497 -9 c0 -11 -5 -29 -10 -40 -7 -13 -7 -19 0
-19 5 0 10 -9 10 -20 0 -17 -7 -20 -40 -20 -44 0 -45 3 -28 60 9 27 19 40 30
40 10 0 18 5 18 10 0 6 5 10 10 10 6 0 10 -9 10 -21z m59 -1 c-1 -33 -14 -64
-22 -51 -9 14 3 73 14 73 5 0 9 -10 8 -22z m511 -23 c5 14 8 9 8 -20 0 -30 -2
-35 -9 -20 l-8 20 -1 -20 c-1 -18 -2 -18 -11 -3 -5 10 -6 30 -2 45 l7 28 4
-25 c4 -23 5 -23 12 -5z m-373 -7 c-3 -8 -6 -5 -6 6 -1 11 2 17 5 13 3 -3 4
-12 1 -19z m270 -65 c-2 -16 -4 -3 -4 27 0 30 2 43 4 28 2 -16 2 -40 0 -55z
m33 48 c0 -6 -4 -13 -10 -16 -5 -3 -10 1 -10 9 0 9 5 16 10 16 6 0 10 -4 10
-9z m-83 -38 c-3 -10 -5 -4 -5 12 0 17 2 24 5 18 2 -7 2 -21 0 -30z m-217 17
c0 -5 -4 -10 -10 -10 -5 0 -10 5 -10 10 0 6 5 10 10 10 6 0 10 -4 10 -10z
m340 -21 c0 -10 -3 -19 -7 -19 -5 0 -8 11 -8 24 0 13 3 22 8 19 4 -2 7 -13 7
-24z m-492 -35 c-3 -14 -5 -12 -10 9 -3 19 -2 25 4 19 6 -6 8 -18 6 -28z m129
-6 c-3 -8 -6 -5 -6 6 -1 11 2 17 5 13 3 -3 4 -12 1 -19z m388 13 c3 -5 1 -12
-5 -16 -5 -3 -10 1 -10 9 0 18 6 21 15 7z m-139 -18 c-2 -10 -7 -33 -11 -50
-4 -19 -13 -33 -21 -33 -19 0 -18 16 1 24 9 3 15 19 15 41 0 19 5 35 11 35 6
0 8 -8 5 -17z m-1211 -19 c19 -9 46 -32 61 -51 54 -72 125 -328 140 -509 l6
-79 -46 -78 c-25 -43 -61 -106 -79 -140 l-32 -62 -2 50 c-8 159 -47 432 -79
540 -8 28 -23 65 -35 84 l-21 34 -22 -24 c-40 -42 -148 -320 -197 -506 -57
-219 -69 -253 -86 -253 -13 0 -15 10 -9 70 5 44 4 70 -3 70 -5 0 -13 -36 -17
-80 -5 -67 -9 -80 -23 -78 -13 3 -17 19 -19 81 -3 93 -22 95 -22 2 0 -69 -9
-84 -34 -59 -23 22 -20 60 14 230 74 363 173 618 280 718 73 67 142 80 225 40z
m1182 4 c-3 -8 -6 -5 -6 6 -1 11 2 17 5 13 3 -3 4 -12 1 -19z m-345 -50 c-5
-69 -12 -75 -12 -11 0 41 5 63 15 63 1 0 0 -24 -3 -52z m428 7 c0 -5 -5 -3
-10 5 -8 12 -10 11 -10 -7 0 -12 5 -25 10 -28 8 -5 7 -11 -1 -21 -6 -8 -9 -18
-5 -21 4 -4 11 -1 16 7 11 17 13 9 4 -14 -8 -22 -34 -20 -35 2 0 14 -2 14 -9
-3 -10 -24 -12 -10 -3 23 4 18 8 20 14 10 5 -7 6 11 3 42 -6 51 -5 54 9 35 9
-11 16 -24 17 -30z m-450 -12 c0 -27 -5 -55 -10 -63 -7 -11 -10 3 -10 48 0 35
4 62 10 62 6 0 10 -21 10 -47z m-116 3 c-3 -14 -10 -23 -15 -21 -4 3 -3 17 3
30 14 31 21 26 12 -9z m621 -15 c-4 -17 -11 -29 -16 -25 -5 3 -9 0 -9 -5 0 -6
4 -11 8 -11 5 0 9 -7 9 -15 0 -9 -9 -15 -21 -15 -16 0 -17 3 -8 9 12 7 11 13
-1 37 -15 30 -13 54 5 54 6 0 8 -9 5 -20 -3 -11 -1 -20 4 -20 5 0 11 11 15 25
9 36 17 23 9 -14z m-368 -8 c-3 -10 -5 -4 -5 12 0 17 2 24 5 18 2 -7 2 -21 0
-30z m-284 -62 c-4 -35 -9 -49 -16 -42 -7 7 -6 25 3 56 16 58 21 53 13 -14z
m510 17 c-9 -10 -19 -16 -22 -13 -3 4 1 10 9 15 10 7 11 10 3 10 -7 0 -13 5
-13 11 0 5 5 7 10 4 6 -3 10 0 10 7 0 10 3 9 10 -2 6 -10 4 -20 -7 -32z m-236
-25 c-3 -10 -5 -2 -5 17 0 19 2 27 5 18 2 -10 2 -26 0 -35z m505 -48 c138 -28
301 -81 390 -126 294 -148 516 -420 594 -726 31 -125 43 -393 25 -564 -15
-132 -69 -421 -111 -594 -34 -142 -57 -270 -73 -415 -11 -96 -14 -105 -32
-103 -11 1 -173 7 -360 12 -187 6 -401 16 -475 22 -139 12 -1279 6 -1446 -7
-96 -8 -91 -16 -100 146 -6 93 -4 111 14 152 37 85 78 96 397 108 218 8 220 8
240 -14 55 -59 145 -96 285 -115 194 -26 340 -33 597 -28 374 7 439 27 593
178 90 88 242 300 220 307 -6 2 -12 2 -13 1 -43 -76 -161 -233 -218 -289 -149
-148 -220 -169 -584 -177 -359 -7 -694 26 -731 73 -6 8 -20 14 -30 14 -26 1
-104 37 -104 48 0 13 66 25 90 17 32 -10 59 13 73 63 19 63 14 73 -34 66 -44
-7 -52 7 -16 30 64 42 126 20 168 -59 13 -25 31 -47 39 -50 48 -15 286 -29
480 -28 193 1 236 4 302 22 103 27 179 80 267 185 122 145 172 226 141 226 -5
0 -10 -4 -10 -9 0 -15 -69 -111 -141 -197 -83 -99 -150 -150 -232 -176 -87
-27 -330 -40 -525 -28 -153 10 -154 10 -182 40 -23 25 -36 30 -73 30 -38 0
-49 5 -67 27 -64 82 -127 83 -211 6 l-27 -25 -188 12 c-180 11 -373 37 -456
62 -30 9 -37 15 -32 27 16 38 15 64 -5 110 -27 63 -26 88 4 273 67 396 89 489
159 671 122 315 342 588 566 701 180 91 325 123 565 125 123 1 171 -4 267 -24z
m-805 -17 c-3 -8 -6 -5 -6 6 -1 11 2 17 5 13 3 -3 4 -12 1 -19z m108 12 c-3
-5 -12 -10 -18 -10 -7 0 -6 4 3 10 19 12 23 12 15 0z m-50 -6 c14 -6 10 -10
-15 -20 -43 -18 -46 -18 -25 6 21 23 18 22 40 14z m1547 -386 c-9 -9 -15 -9
-24 0 -9 9 -7 12 12 12 19 0 21 -3 12 -12z m-3407 -1309 c22 -11 56 -29 75
-40 27 -15 54 -19 125 -19 116 0 437 -30 450 -42 6 -7 -14 -8 -55 -4 -36 4
-163 13 -283 20 l-219 14 -70 37 c-71 37 -107 42 -163 21 -16 -6 -15 -4 5 13
32 26 83 26 135 0z m-655 -93 c0 -42 -22 -78 -37 -62 -11 11 -5 86 8 102 18
22 29 7 29 -40z m178 14 c-32 -10 -75 -27 -95 -39 l-38 -21 28 23 c31 24 111
56 142 55 11 0 -6 -8 -37 -18z m-367 -139 c3 -23 11 -47 17 -53 7 -7 12 -38
12 -70 0 -57 -4 -63 -38 -59 -8 1 -20 -6 -27 -16 -12 -16 -14 -13 -25 27 -7
24 -9 58 -6 75 16 85 26 127 32 136 12 20 29 1 35 -40z m1989 -2 c96 -23 256
-39 495 -47 155 -6 190 -10 190 -21 0 -12 -34 -14 -215 -13 -282 3 -484 -16
-561 -52 -95 -44 -200 -66 -320 -66 -101 0 -109 -2 -126 -23 -10 -13 -30 -31
-45 -41 -25 -17 -30 -17 -84 -1 -31 9 -54 18 -52 20 2 3 18 1 35 -4 43 -13 91
0 143 38 30 21 53 31 68 28 76 -15 311 37 365 80 33 27 34 76 3 101 -14 11
-26 23 -26 26 0 7 9 5 130 -25z m935 -80 c5 -5 -5 -9 -27 -9 -19 0 -41 6 -47
14 -10 12 -5 13 26 9 21 -3 42 -9 48 -14z m-2328 -55 c-3 -3 -12 -4 -19 -1 -8
3 -5 6 6 6 11 1 17 -2 13 -5z m60 -10 c-3 -3 -12 -4 -19 -1 -8 3 -5 6 6 6 11
1 17 -2 13 -5z m50 -10 c-3 -3 -12 -4 -19 -1 -8 3 -5 6 6 6 11 1 17 -2 13 -5z
m133 -127 c0 -70 -16 -104 -45 -94 -18 8 -18 14 5 110 18 72 40 63 40 -16z
m-254 9 c-3 -11 -5 -29 -5 -38 -1 -11 -9 -18 -21 -18 -23 0 -27 31 -10 75 9
22 13 25 25 15 8 -7 13 -22 11 -34z m-889 -52 c-3 -3 -12 -4 -19 -1 -8 3 -5 6
6 6 11 1 17 -2 13 -5z m257 -52 c3 -5 -1 -9 -9 -9 -8 0 -12 4 -9 9 3 4 7 8 9
8 2 0 6 -4 9 -8z"/>
<path d="M3151 4134 c0 -11 3 -14 6 -6 3 7 2 16 -1 19 -3 4 -6 -2 -5 -13z"/>
<path d="M2879 3541 c-80 -26 -165 -99 -197 -171 -38 -81 -37 -195 0 -266 51
-97 147 -164 236 -164 23 0 42 -4 42 -9 0 -5 -12 -33 -27 -63 -36 -72 -41
-142 -14 -196 23 -45 39 -57 91 -67 26 -4 47 0 81 17 l47 24 5 -56 c13 -143
120 -229 247 -198 32 9 58 25 92 60 31 32 50 45 52 36 3 -7 9 -29 15 -49 12
-38 69 -79 110 -79 87 0 191 128 191 235 0 19 3 35 7 35 3 0 31 -12 62 -27 48
-24 69 -28 141 -28 76 0 91 4 146 32 99 52 144 116 163 233 20 120 -20 254
-94 318 -84 74 -213 113 -306 92 -97 -22 -198 -99 -248 -187 -8 -15 -13 -13
-47 13 -89 69 -153 92 -271 101 l-83 6 0 32 c0 51 -37 157 -71 206 -67 95
-117 120 -249 125 -52 2 -107 0 -121 -5z m107 -57 c21 -9 52 -26 68 -39 71
-54 136 -215 116 -286 -6 -18 -46 -66 -102 -120 -102 -98 -111 -102 -204 -74
-107 31 -194 152 -194 266 0 108 56 206 145 252 39 21 122 21 171 1z m1118
-307 c61 -40 110 -113 121 -178 9 -51 -10 -144 -41 -206 -49 -96 -145 -165
-232 -166 -85 -1 -94 12 -123 161 -12 65 -58 173 -86 204 -37 42 22 139 120
198 46 27 59 30 118 28 57 -3 74 -9 123 -41z m-611 -33 c122 -32 204 -95 260
-201 92 -177 104 -379 28 -485 -26 -37 -95 -78 -131 -78 -30 0 -78 48 -90 88
-13 49 -13 187 1 292 17 122 16 146 -6 171 -35 39 -114 69 -182 69 -78 0 -103
-20 -103 -79 0 -87 -120 -254 -206 -287 -37 -14 -44 -14 -78 0 -100 42 -81
195 43 344 125 150 294 210 464 166z m-169 -299 c42 -32 140 -57 189 -49 36 6
38 5 33 -18 -3 -12 -8 -40 -11 -60 -7 -43 -13 -45 -111 -27 -58 11 -144 50
-165 75 -8 10 -6 26 6 59 10 25 20 45 22 45 2 0 19 -11 37 -25z m-54 -113 c28
-23 19 -42 -21 -42 -26 0 -29 3 -29 30 0 35 17 39 50 12z m90 -44 c47 -15 49
-22 15 -44 -23 -15 -27 -15 -50 0 -24 16 -35 56 -15 56 6 0 28 -6 50 -12z
m168 -52 c-4 -35 -26 -51 -60 -43 -22 6 -48 42 -48 67 0 5 25 8 55 7 55 -2 56
-2 53 -31z m-84 -162 c27 -10 18 -24 -26 -44 -70 -32 -166 -22 -151 16 3 8 7
13 10 10 2 -2 16 2 31 10 28 14 108 19 136 8z"/>
<path d="M4556 2925 c-3 -13 -9 -51 -12 -83 -8 -69 6 -119 41 -152 72 -68 195
57 195 197 0 61 -16 45 -22 -20 -5 -67 -35 -125 -78 -154 -42 -29 -52 -29 -87
1 -26 22 -28 30 -28 93 0 37 4 85 8 106 9 41 -7 53 -17 12z"/>
<path d="M785 4202 c13 -12 605 -36 617 -24 11 11 -114 19 -412 28 -144 4
-212 3 -205 -4z"/>
<path d="M758 4143 c-227 -2 -358 -7 -358 -13 0 -11 656 -14 733 -4 48 7 56
26 9 22 -15 -2 -188 -4 -384 -5z"/>
<path d="M4882 3464 c-92 -16 -119 -33 -128 -79 -9 -49 0 -67 33 -63 20 2 32
12 42 35 15 35 26 39 141 59 l75 13 -76 -4 c-98 -6 -125 -17 -145 -58 -13 -28
-21 -33 -41 -29 -22 4 -24 8 -19 36 3 17 15 38 26 47 20 17 118 38 181 40 19
0 43 4 54 9 32 14 -58 10 -143 -6z"/>
<path d="M924 2012 c-5 -4 -10 -24 -11 -44 -3 -44 17 -67 78 -91 30 -12 41
-13 43 -4 2 7 8 26 13 44 13 37 11 39 -63 76 -28 14 -55 22 -60 19z"/>
<path d="M1090 1900 c0 -19 -6 -33 -16 -37 -11 -4 -1 -14 37 -34 52 -29 68
-27 69 8 0 6 2 18 5 25 4 10 -11 24 -45 42 l-50 27 0 -31z"/>
<path d="M630 1701 c0 -17 18 -21 24 -6 3 9 0 15 -9 15 -8 0 -15 -4 -15 -9z"/>
<path d="M67 1693 c-37 -2 -67 -8 -67 -12 0 -11 82 -19 138 -13 39 4 41 6 25
18 -10 7 -20 13 -23 12 -3 -1 -35 -3 -73 -5z"/>
<path d="M581 1664 c0 -11 3 -14 6 -6 3 7 2 16 -1 19 -3 4 -6 -2 -5 -13z"/>
<path d="M550 1562 c-8 -4 -16 -13 -18 -21 -16 -73 -17 -71 18 -71 30 0 32 2
26 28 -4 15 -8 37 -9 50 0 12 -1 22 -1 21 -1 0 -8 -3 -16 -7z"/>
<path d="M769 1493 c-9 -2 -19 -18 -23 -35 -11 -56 -9 -58 34 -35 22 12 40 27
40 33 0 17 -33 41 -51 37z"/>
<path d="M1304 1436 c-17 -17 -37 -53 -45 -79 -18 -64 -39 -84 -94 -93 -33 -4
-51 -13 -62 -30 -14 -22 -14 -25 8 -44 13 -10 26 -19 29 -20 3 0 15 16 28 36
30 46 56 43 60 -8 2 -20 10 -42 18 -48 8 -7 14 -21 14 -31 0 -34 19 -30 49 11
38 53 32 76 -21 71 -41 -4 -38 129 4 155 7 5 19 9 27 11 19 2 31 23 31 53 0
45 -13 49 -46 16z"/>
<path d="M997 1423 c-12 -11 -8 -23 8 -23 8 0 15 7 15 15 0 16 -12 20 -23 8z"/>
<path d="M930 1410 c-9 -6 -10 -10 -3 -10 6 0 15 5 18 10 8 12 4 12 -15 0z"/>
<path d="M2169 1399 l-24 -20 30 17 c39 24 40 24 28 24 -6 0 -21 -9 -34 -21z"/>
<path d="M880 1390 c-8 -5 -10 -10 -5 -10 6 0 17 5 25 10 8 5 11 10 5 10 -5 0
-17 -5 -25 -10z"/>
<path d="M2110 1370 c-8 -5 -10 -10 -5 -10 6 0 17 5 25 10 8 5 11 10 5 10 -5
0 -17 -5 -25 -10z"/>
<path d="M5023 1368 c-5 -7 -31 -44 -57 -83 l-48 -70 61 63 c34 34 61 71 61
82 0 23 -4 25 -17 8z"/>
<path d="M2065 1350 c-3 -6 1 -7 9 -4 18 7 21 14 7 14 -6 0 -13 -4 -16 -10z"/>
<path d="M4895 1320 c-21 -22 -35 -40 -30 -39 10 1 82 79 73 79 -2 0 -22 -18
-43 -40z"/>
<path d="M343 1342 c-8 -5 -8 -17 2 -45 22 -66 35 -64 38 4 2 44 -12 59 -40
41z"/>
<path d="M425 1340 c-7 -12 -7 -12 23 -15 13 -1 22 3 22 11 0 16 -36 19 -45 4z"/>
<path d="M552 1341 c-10 -6 -7 -10 13 -15 30 -8 41 -3 30 13 -7 13 -25 14 -43
2z"/>
<path d="M637 1344 c-3 -4 11 -25 33 -48 46 -48 67 -41 56 18 -6 34 -9 36 -45
36 -21 0 -40 -3 -44 -6z"/>
<path d="M840 1332 c0 -24 37 -133 50 -146 20 -20 57 45 61 110 l3 49 -57 3
c-50 3 -57 1 -57 -16z"/>
<path d="M1000 1319 c0 -15 4 -30 8 -33 5 -3 7 -27 5 -55 -4 -54 12 -77 31
-45 23 39 45 108 41 128 -2 12 -4 23 -4 26 -1 3 -19 6 -41 6 -37 1 -40 0 -40
-27z"/>
<path d="M1150 1323 c0 -25 1 -26 16 -11 9 9 13 21 10 27 -13 20 -26 11 -26
-16z"/>
<path d="M797 1303 c-2 -4 -8 -24 -12 -43 -4 -19 -15 -42 -25 -50 -9 -8 -21
-28 -27 -45 -7 -22 -15 -29 -29 -27 -10 2 -20 8 -22 13 -2 5 -10 9 -19 9 -17
0 -17 0 17 -57 14 -24 29 -41 34 -40 5 2 15 18 21 36 6 19 21 42 33 51 12 10
22 25 22 34 0 9 11 18 25 22 29 7 29 5 10 50 -8 19 -14 37 -14 40 1 10 -9 15
-14 7z"/>
<path d="M616 1271 c-10 -16 5 -41 35 -56 34 -18 39 -19 39 -2 0 24 -64 74
-74 58z"/>
<path d="M387 1216 c-28 -22 -28 -25 -17 -67 7 -24 19 -52 28 -62 15 -17 17
-17 28 -3 8 12 9 30 2 64 -5 26 -10 57 -10 70 0 12 -1 22 -2 22 0 -1 -14 -11
-29 -24z"/>
<path d="M962 1208 c-6 -6 -12 -18 -12 -25 0 -7 -5 -13 -11 -13 -6 0 -3 -7 5
-16 9 -9 16 -33 17 -57 0 -23 4 -50 8 -61 6 -16 10 -14 32 15 25 33 49 73 49
82 0 3 -8 3 -18 0 -22 -5 -37 11 -49 55 -6 26 -11 30 -21 20z"/>
<path d="M852 1146 c2 -16 9 -31 16 -34 17 -5 15 20 -3 44 -15 18 -15 18 -13
-10z"/>
<path d="M5025 395 c-6 -9 -38 -18 -90 -24 l-80 -10 88 4 c49 2 91 6 94 8 3 3
3 13 1 21 -3 15 -4 15 -13 1z"/>
<path d="M4810 370 c0 -5 7 -10 16 -10 8 0 12 5 9 10 -3 6 -10 10 -16 10 -5 0
-9 -4 -9 -10z"/>
</g>
</svg>
